<?xml version="1.0" standalone="no"?>
<!DOCTYPE svg PUBLIC "-//W3C//DTD SVG 20010904//EN"
 "http://www.w3.org/TR/2001/REC-SVG-20010904/DTD/svg10.dtd">
<svg version="1.0" xmlns="http://www.w3.org/2000/svg"
 width="200px" height="200px" viewBox="260 260 380 380"
 preserveAspectRatio="none">
<metadata>
Created by potrace 1.10, written by Peter Selinger 2001-2011
</metadata>
<g transform="translate(0.000000,900.000000) scale(0.100000,-0.100000)"
fill="#000000" stroke="none">
<path d="M4446 6244 c-12 -12 -16 -38 -16 -115 0 -119 8 -112 -155 -129 -242
-26 -458 -102 -667 -233 -191 -120 -363 -294 -478 -482 -50 -81 -140 -268
-140 -290 0 -8 -6 -29 -14 -47 -19 -45 -35 -115 -52 -227 -24 -158 -17 -199
24 -150 95 112 138 134 262 134 134 0 169 -19 278 -145 l31 -35 10 27 c14 37
81 102 133 130 37 20 58 23 148 23 58 0 110 4 117 8 6 4 15 29 18 55 4 26 20
100 35 165 32 130 30 150 -17 199 -41 43 -85 53 -131 31 -37 -18 -42 -27 -62
-108 -21 -89 -132 -149 -228 -125 -98 24 -149 79 -172 181 -20 87 13 215 81
319 45 67 96 117 169 162 66 41 91 51 195 80 108 29 397 32 550 4 152 -27 333
-66 425 -91 43 -12 98 -27 235 -62 33 -9 83 -22 110 -29 122 -31 314 -62 450
-71 98 -6 259 14 345 44 194 66 311 198 370 413 23 86 33 176 20 199 -25 47
-68 32 -100 -34 -36 -74 -115 -137 -235 -185 -49 -19 -212 -40 -319 -40 -189
0 -520 40 -600 72 -135 54 -281 91 -426 108 -142 17 -130 6 -130 118 0 72 -4
103 -16 120 -18 26 -27 27 -48 6z"/>
<path d="M4475 5515 c-92 -22 -161 -62 -223 -130 -102 -111 -147 -235 -226
-615 -8 -41 -22 -106 -30 -145 -8 -38 -17 -90 -20 -113 -4 -24 -13 -59 -21
-78 -12 -29 -19 -34 -48 -34 -41 0 -174 -52 -231 -91 -112 -75 -185 -175 -220
-298 -21 -72 -20 -104 3 -125 32 -29 61 -16 102 44 69 101 191 186 292 204
l37 7 0 -36 c0 -20 -6 -64 -14 -98 -8 -34 -22 -105 -31 -157 -9 -52 -22 -124
-30 -160 -7 -36 -21 -103 -30 -150 -17 -83 -72 -314 -100 -418 -22 -81 -76
-183 -122 -229 -66 -66 -111 -85 -208 -84 -125 0 -194 35 -245 124 -26 46 -30
62 -30 132 0 96 23 144 87 188 62 41 86 81 91 146 6 92 -43 177 -123 216 -111
52 -269 12 -328 -83 -60 -95 -75 -257 -38 -397 48 -176 148 -298 311 -378 l85
-42 185 0 c165 0 191 2 245 22 196 72 330 178 454 359 73 107 143 260 171 374
5 19 20 76 33 125 23 89 41 170 70 315 9 41 24 113 34 160 l19 85 119 3 c102
2 128 0 176 -18 71 -27 116 -73 139 -142 14 -40 25 -55 45 -63 37 -13 58 15
74 97 38 199 68 350 86 426 15 61 11 83 -16 100 -28 18 -50 8 -78 -33 -34 -50
-87 -89 -146 -108 -54 -17 -278 -33 -319 -23 -30 8 -31 17 -11 111 8 39 21
104 29 145 35 178 49 248 62 300 7 30 23 93 34 140 11 47 30 117 41 155 11 39
24 84 28 100 5 17 14 43 20 58 6 16 11 44 11 63 0 30 -5 37 -35 50 -40 17 -91
17 -160 -1z"/>
<path d="M4765 5488 c-5 -16 -62 -208 -80 -268 -8 -25 -20 -72 -29 -105 -8
-33 -21 -87 -29 -120 -26 -103 -46 -198 -52 -247 -5 -39 -3 -50 14 -63 42 -37
97 -92 118 -120 l23 -30 17 23 c53 69 81 96 127 120 45 24 62 27 146 27 128
-1 159 -17 268 -144 l29 -35 16 30 c22 42 81 99 130 125 36 20 57 23 142 23
85 0 106 -3 140 -22 44 -25 99 -73 122 -109 8 -12 19 -23 24 -23 24 0 -6 284
-39 371 -5 13 -18 49 -27 79 -43 131 -156 333 -192 343 -10 3 -65 8 -123 12
-122 7 -331 43 -460 80 -25 7 -58 16 -75 19 -16 3 -61 15 -100 26 -82 23 -104
24 -110 8z"/>
<path d="M4448 4079 c-17 -9 -18 -39 -18 -390 0 -262 -3 -387 -11 -401 -18
-34 -12 -322 8 -382 19 -59 91 -136 149 -161 92 -40 212 -16 283 55 61 61 93
147 70 188 -27 49 -109 34 -109 -21 0 -34 -31 -86 -65 -107 -48 -29 -119 -27
-162 6 -56 43 -63 67 -63 226 0 79 -4 157 -9 174 -5 17 -10 200 -12 405 -2
293 -5 379 -16 397 -15 25 -20 26 -45 11z"/>
</g>
</svg>
